<svg xmlns="http://www.w3.org/2000/svg" version="1.1" xmlns:xlink="http://www.w3.org/1999/xlink" xmlns:svgjs="http://svgjs.com/svgjs" width="1440" height="560" preserveAspectRatio="none" viewBox="0 0 1440 560"><g mask="url(&quot;#SvgjsMask1001&quot;)" fill="none"><rect width="1440" height="560" x="0" y="0" fill="rgba(0, 30, 60, 1)"></rect><path d="M -228.32955166823578,226 C -132.33,261.2 59.67,421.2 251.67044833176422,402 C 443.67,382.8 539.67,118.4 731.6704483317642,130 C 923.67,141.6 1019.67,449 1211.6704483317642,460 C 1403.67,471 1646,216.8 1691.6704483317642,185 C 1737.34,153.2 1490.33,277.8 1440,301" stroke="rgba(51, 121, 194, 0.58)" stroke-width="2"></path><path d="M -77.97807570101492,472 C 18.02,394.4 210.02,97.2 402.0219242989851,84 C 594.02,70.8 690.02,390 882.0219242989851,406 C 1074.02,422 1170.02,148.2 1362.0219242989851,164 C 1554.02,179.8 1826.43,482.8 1842.0219242989851,485 C 1857.62,487.2 1520.4,237 1440,175" stroke="rgba(51, 121, 194, 0.58)" stroke-width="2"></path><path d="M -499.05924998870324,169 C -403.06,230 -211.06,484.6 -19.059249988703257,474 C 172.94,463.4 268.94,127.2 460.94075001129676,116 C 652.94,104.8 748.94,388.4 940.9407500112967,418 C 1132.94,447.6 1321.13,282 1420.9407500112968,264 C 1520.75,246 1436.19,315.2 1440,328" stroke="rgba(51, 121, 194, 0.58)" stroke-width="2"></path><path d="M -414.4444387050269,365 C -318.44,343.2 -126.44,238.6 65.55556129497307,256 C 257.56,273.4 353.56,460.2 545.5555612949731,452 C 737.56,443.8 833.56,245 1025.5555612949731,215 C 1217.56,185 1422.67,303 1505.5555612949731,302 C 1588.44,301 1453.11,228.4 1440,210" stroke="rgba(51, 121, 194, 0.58)" stroke-width="2"></path></g><defs><mask id="SvgjsMask1001"><rect width="1440" height="560" fill="#ffffff"></rect></mask></defs></svg>